<svg xmlns="http://www.w3.org/2000/svg" viewBox="0 0 280 200" width="280" height="200">
  <!-- Simplified brick-like building blocks in white - all same size -->
  
  <!-- Bottom row - 3 rectangular bricks (all same size) -->
  <rect x="20" y="140" width="80" height="40" fill="white" stroke="rgba(255,255,255,0.4)" stroke-width="1" rx="2"/>
  <rect x="110" y="140" width="80" height="40" fill="white" stroke="rgba(255,255,255,0.4)" stroke-width="1" rx="2"/>
  <rect x="200" y="140" width="80" height="40" fill="white" stroke="rgba(255,255,255,0.4)" stroke-width="1" rx="2"/>
  
  <!-- Middle row - 2 offset bricks (same size) -->
  <rect x="65" y="90" width="80" height="40" fill="white" stroke="rgba(255,255,255,0.4)" stroke-width="1" rx="2"/>
  <rect x="155" y="90" width="80" height="40" fill="white" stroke="rgba(255,255,255,0.4)" stroke-width="1" rx="2"/>
  
  <!-- Top row - 1 centered brick (same size) -->
  <rect x="110" y="40" width="80" height="40" fill="white" stroke="rgba(255,255,255,0.4)" stroke-width="1" rx="2"/>
  
  <!-- Add subtle shadows/depth (all same size) -->
  <rect x="22" y="142" width="80" height="40" fill="rgba(255,255,255,0.1)" stroke="none" rx="2"/>
  <rect x="112" y="142" width="80" height="40" fill="rgba(255,255,255,0.1)" stroke="none" rx="2"/>
  <rect x="202" y="142" width="80" height="40" fill="rgba(255,255,255,0.1)" stroke="none" rx="2"/>
  
  <rect x="67" y="92" width="80" height="40" fill="rgba(255,255,255,0.1)" stroke="none" rx="2"/>
  <rect x="157" y="92" width="80" height="40" fill="rgba(255,255,255,0.1)" stroke="none" rx="2"/>
  
  <rect x="112" y="42" width="80" height="40" fill="rgba(255,255,255,0.1)" stroke="none" rx="2"/>
</svg>
